<?xml version="1.0" encoding="iso-8859-1"?>
<!-- Generator: Adobe Illustrator 19.0.0, SVG Export Plug-In . SVG Version: 6.00 Build 0)  -->
<svg version="1.1" width="256" height="256" id="Capa_1" xmlns="http://www.w3.org/2000/svg" xmlns:xlink="http://www.w3.org/1999/xlink" x="0px" y="0px"
	 viewBox="0 0 468.293 468.293" style="enable-background:new 0 0 468.293 468.293;" xml:space="preserve">
<path style="fill:#E56353;" d="M454.414,149.608V53.895c0-11.548-9.362-20.909-20.91-20.909H34.788
	c-11.548,0-20.909,9.361-20.909,20.909v95.713H454.414z"/>
<path style="fill:#EBF0F3;" d="M13.879,113.558v333.825c0,11.548,9.361,20.909,20.909,20.909h398.716
	c11.548,0,20.909-9.361,20.909-20.909V113.558L13.879,113.558L13.879,113.558z"/>
<path style="fill:#2F4859;" d="M268.493,387.967h-37.054V248.339c-13.532,12.653-29.486,22.014-47.862,28.084v-33.62
	c9.672-3.168,20.178-9.166,31.517-17.995c11.331-8.838,19.113-19.139,23.336-30.923h30.062V387.967z"/>
<g>
	<path style="fill:#D5D6DB;" d="M364.468,0c-9.557,0-17.304,7.747-17.304,17.304v38.934c0,9.557,7.747,17.304,17.304,17.304
		c9.556,0,17.304-7.747,17.304-17.304V17.304C381.772,7.747,374.024,0,364.468,0z"/>
	<path style="fill:#D5D6DB;" d="M103.825,0c-9.557,0-17.304,7.747-17.304,17.304v38.934c0,9.557,7.747,17.304,17.304,17.304
		c9.556,0,17.304-7.747,17.304-17.304V17.304C121.129,7.747,113.381,0,103.825,0z"/>
</g>
<g>
</g>
<g>
</g>
<g>
</g>
<g>
</g>
<g>
</g>
<g>
</g>
<g>
</g>
<g>
</g>
<g>
</g>
<g>
</g>
<g>
</g>
<g>
</g>
<g>
</g>
<g>
</g>
<g>
</g>
</svg>
