<svg xmlns="http://www.w3.org/2000/svg" width="256" height="256" viewBox="0 0 70 70" style="width: 100%; height: 100%;"><desc>Made with illustrio</desc>
  
<g class="content"><circle cx="50%" cy="50%" r="27px" class="main-fill"></circle><g class="base"><g fill="none" fill-rule="evenodd" stroke="none" class="secondary-fill">
    
    
  </g><g fill="none" transform="translate(20 22)" stroke="none" class="secondary-fill">
      <path d="M24.4 19.2L24.4 15.5C24.4 15.1 24.1 14.9 23.8 14.9 23.4 14.9 23.2 15.2 23.2 15.5L23.2 18.7C22.9 18.8 22.7 19 22.6 19.3L20.7 19.3C20.3 19.3 20.1 19.6 20.1 19.9 20.1 20.3 20.4 20.5 20.7 20.5L23 20.5C23.2 20.6 23.4 20.7 23.6 20.7 24.2 20.7 24.7 20.2 24.7 19.6 24.6 19.6 24.5 19.4 24.4 19.2L24.4 19.2zM25.7 3.3C25.7 2.9 25.4 2.7 25.1 2.7L21.9 2.7 21.9.8C21.9.4 21.6.2 21.3.2L17.4.2C17 .2 16.8.5 16.8.8L16.8 2.7 9 2.7 9 .8C9 .4 8.7.2 8.4.2L4.5.2C4.1.2 3.9.5 3.9.8L3.9 2.7.6 2.7C.3 2.7 0 3 0 3.3L0 7.8 25.7 7.8 25.7 3.3 25.7 3.3zM7.7 5.2L5.1 5.2 5.1 1.4 7.7 1.4 7.7 5.2 7.7 5.2zM20.5 5.2L18 5.2 18 1.4 20.6 1.4 20.6 5.2 20.5 5.2z" fill="none" stroke="none" class="secondary-fill"></path>
      <path d="M25.7,12.7 L25.7,9 L0,9 L0,25 C0,25.4 0.3,25.6 0.6,25.6 L21.8,25.6 L21.9,25.6 C22.3,25.7 22.7,25.7 23.2,25.7 C27,25.7 30,22.6 30,18.9 C30,16.2 28.2,13.7 25.7,12.7 L25.7,12.7 Z M19.3,11.7 L21.9,11.7 L21.9,12.4 C21,12.6 20.1,13 19.3,13.5 L19.3,11.7 L19.3,11.7 Z M15.4,11.7 L18,11.7 L18,14.3 L15.4,14.3 L15.4,11.7 L15.4,11.7 Z M6.4,21.9 L3.9,21.9 L3.9,19.3 L6.5,19.3 L6.5,21.9 L6.4,21.9 Z M6.4,18.1 L3.9,18.1 L3.9,15.5 L6.5,15.5 L6.5,18.1 L6.4,18.1 Z M6.4,14.2 L3.9,14.2 L3.9,11.6 L6.5,11.6 L6.5,14.2 L6.4,14.2 Z M10.3,21.9 L7.7,21.9 L7.7,19.3 L10.3,19.3 L10.3,21.9 L10.3,21.9 Z M10.3,18.1 L7.7,18.1 L7.7,15.5 L10.3,15.5 L10.3,18.1 L10.3,18.1 Z M10.3,14.2 L7.7,14.2 L7.7,11.6 L10.3,11.6 L10.3,14.2 L10.3,14.2 Z M14.1,21.9 L11.5,21.9 L11.5,19.3 L14.1,19.3 L14.1,21.9 L14.1,21.9 Z M14.1,18.1 L11.5,18.1 L11.5,15.5 L14.1,15.5 L14.1,18.1 L14.1,18.1 Z M14.1,14.2 L11.5,14.2 L11.5,11.6 L14.1,11.6 L14.1,14.2 L14.1,14.2 Z M15.4,21.9 L15.4,19.3 L16.4,19.3 C16.4,20.2 16.7,21.1 17,21.9 L15.4,21.9 L15.4,21.9 Z M16.5,18.1 L15.4,18.1 L15.4,15.5 L17.4,15.5 C16.9,16.3 16.6,17.1 16.5,18.1 L16.5,18.1 Z M23.2,24.6 C20.2,24.6 17.7,22.1 17.7,19.1 C17.7,16.1 20.2,13.6 23.2,13.6 C26.2,13.6 28.7,16.1 28.7,19.1 C28.7,22.1 26.2,24.6 23.2,24.6 L23.2,24.6 Z" fill="none" stroke="none" class="secondary-fill"></path>
    </g></g></g><style>
          .main-fill {fill: #ca9a4a;}
          .main-stroke {stroke: #ca9a4a;}
          .secondary-fill {fill: #ffffff;}
          .secondary-stroke {stroke: #ffffff;}

          .main-fill--darken {fill: #b04e03;}
          .main-stroke--darken {stroke: #b04e03;}
          .secondary-fill--darken {fill: #d9d9d9;}
          .secondary-stroke--darken {stroke: #d9d9d9;}

          .main-fill--darkener {fill: #7d3802;}
          .main-stroke--darkener {stroke: #7d3802;}
          .secondary-fill--darkener {fill: #bfbfbf;}
          .secondary-stroke--darkener {stroke: #bfbfbf;}
        </style></svg>