<svg xmlns="http://www.w3.org/2000/svg" width="256" height="256" viewBox="0 0 70 70" style="width: 100%; height: 100%;"><desc>Made with illustrio</desc>
  
<g class="content"><circle cx="50%" cy="50%" r="27px" class="main-fill"></circle><g class="base"><g fill="none" fill-rule="evenodd" stroke="none" class="secondary-fill">
    
    <path fill="none" d="M12.0909091,0 C5.42372727,0 0,5.42372727 0,12.0909091 C0,18.5544545 11.109,33.4759091 11.5818182,34.1084545 C11.7020909,34.2694545 11.8910909,34.3636364 12.0909091,34.3636364 C12.2907273,34.3636364 12.4803636,34.2694545 12.6006364,34.1084545 C13.0734545,33.4759091 24.1818182,18.5544545 24.1818182,12.0909091 C24.1818182,5.42372727 18.7580909,0 12.0909091,0 L12.0909091,0 Z M18.4545455,12.7272727 L12.7272727,12.7272727 L12.7272727,18.4545455 C12.7272727,18.8064545 12.4421818,19.0909091 12.0909091,19.0909091 C11.7396364,19.0909091 11.4545455,18.8064545 11.4545455,18.4545455 L11.4545455,12.7272727 L5.72727273,12.7272727 C5.376,12.7272727 5.09090909,12.4421818 5.09090909,12.0909091 C5.09090909,11.7396364 5.376,11.4545455 5.72727273,11.4545455 L11.4545455,11.4545455 L11.4545455,5.72727273 C11.4545455,5.376 11.7396364,5.09090909 12.0909091,5.09090909 C12.4421818,5.09090909 12.7272727,5.376 12.7272727,5.72727273 L12.7272727,11.4545455 L18.4545455,11.4545455 C18.8064545,11.4545455 19.0909091,11.7396364 19.0909091,12.0909091 C19.0909091,12.4421818 18.8064545,12.7272727 18.4545455,12.7272727 L18.4545455,12.7272727 Z" transform="translate(22.91 17.818)" stroke="none" class="secondary-fill"></path>
  </g></g></g><style>
          .main-fill {fill: #FF9800;}
          .main-stroke {stroke: #FF9800;}
          .secondary-fill {fill: #ffffff;}
          .secondary-stroke {stroke: #ffffff;}

          .main-fill--darken {fill: #b04e03;}
          .main-stroke--darken {stroke: #b04e03;}
          .secondary-fill--darken {fill: #d9d9d9;}
          .secondary-stroke--darken {stroke: #d9d9d9;}

          .main-fill--darkener {fill: #7d3802;}
          .main-stroke--darkener {stroke: #7d3802;}
          .secondary-fill--darkener {fill: #bfbfbf;}
          .secondary-stroke--darkener {stroke: #bfbfbf;}
        </style></svg>