<svg xmlns="http://www.w3.org/2000/svg" width="256" height="256" viewBox="0 0 70 70" style="width: 100%; height: 100%;"><desc>Made with illustrio</desc>
  
<g class="content"><circle cx="50%" cy="50%" r="27px" class="main-fill"></circle><g class="base"><g fill="none" fill-rule="evenodd" stroke="none" class="secondary-fill">
    
    
    <path fill="none" d="M17.2941176,0.149132941 C7.74286471,0.149132941 0,7.89196882 0,17.4432506 C0,26.9945447 7.74286471,34.7373682 17.2941176,34.7373682 C26.8453706,34.7373682 34.5882353,26.9945447 34.5882353,17.4432506 C34.5882353,7.89196882 26.8453706,0.149132941 17.2941176,0.149132941 Z M17.2040441,4.25391235 C17.4398461,4.2279368 17.6753974,4.30489867 17.8503735,4.46508808 C18.0253496,4.62527748 18.1227561,4.85313609 18.1176471,5.09030941 L18.1176471,16.6197212 L27.1764706,16.6197212 C27.4734649,16.6155209 27.7497141,16.7715597 27.8994369,17.0280871 C28.0491598,17.2846144 28.0491598,17.6018867 27.8994369,17.8584141 C27.7497141,18.1149415 27.4734649,18.2709802 27.1764706,18.26678 L17.2941176,18.26678 C16.8393137,18.2667345 16.4706337,17.8980545 16.4705882,17.4432506 L16.4705882,5.09030941 C16.4614082,4.66357491 16.779765,4.30053652 17.2040441,4.25391235 Z" transform="translate(17.706 17.557)" stroke="none" class="secondary-fill"></path>
  </g></g></g><style>
          .main-fill {fill: #FF9800;}
          .main-stroke {stroke: #FF9800;}
          .secondary-fill {fill: #ffffff;}
          .secondary-stroke {stroke: #ffffff;}

          .main-fill--darken {fill: #b04e03;}
          .main-stroke--darken {stroke: #b04e03;}
          .secondary-fill--darken {fill: #d9d9d9;}
          .secondary-stroke--darken {stroke: #d9d9d9;}

          .main-fill--darkener {fill: #7d3802;}
          .main-stroke--darkener {stroke: #7d3802;}
          .secondary-fill--darkener {fill: #bfbfbf;}
          .secondary-stroke--darkener {stroke: #bfbfbf;}
        </style></svg>